<svg id="Layer_1" data-name="Layer 1" xmlns="http://www.w3.org/2000/svg" viewBox="0 0 34.07 20.76"><defs><style>.cls-1{fill:#fff;}.cls-2{fill:#68d391;}</style></defs><path class="cls-1" d="M59.14,41.41v.49a5.73,5.73,0,0,1-5.41,5.72H30.79a5.73,5.73,0,0,1-5.72-5.73v-.49a5.72,5.72,0,0,1,5.72-5.72h.42a7.52,7.52,0,0,1,7.38-6.11,7.43,7.43,0,0,1,1.72.2,7.27,7.27,0,0,1,5.8-2.92l.52,0,.53,0a7.43,7.43,0,0,1,7.32,7.52,7.87,7.87,0,0,1-.12,1.38A5.73,5.73,0,0,1,59.14,41.41Z" transform="translate(-25.07 -26.86)"/><path class="cls-2" d="M41.72,34.11a3.88,3.88,0,0,0-2.74,1,3.48,3.48,0,0,0-1,2.56,3.75,3.75,0,0,0,.6,1.9,6.9,6.9,0,0,1,.76,1.6c.2.73.34,1.61.57,2.34a2.92,2.92,0,0,0,.47,1,1.21,1.21,0,0,0,1,.51,1.14,1.14,0,0,0,.94-.49,1.83,1.83,0,0,0,.25-1,12.48,12.48,0,0,1,.09-1.77,2,2,0,0,1,.22-.65c.08-.12.08-.13.14-.13s.06,0,.14.13a2.05,2.05,0,0,1,.21.65,11.24,11.24,0,0,1,.1,1.77,1.91,1.91,0,0,0,.24,1,1.16,1.16,0,0,0,1,.49,1.19,1.19,0,0,0,.95-.51,3.36,3.36,0,0,0,.47-1c.23-.73.37-1.6.56-2.32a7.37,7.37,0,0,1,.77-1.6,3.75,3.75,0,0,0,.59-1.9,3.45,3.45,0,0,0-3.59-3.55,5.81,5.81,0,0,0-1.42.25A3.38,3.38,0,0,0,41.72,34.11Zm0,.9A4.26,4.26,0,0,1,44,36.12l.64-.65-.51-.41a1.29,1.29,0,0,1,.24-.05A2.48,2.48,0,0,1,47,37.65h0a2.83,2.83,0,0,1-.47,1.46,7.37,7.37,0,0,0-.86,1.8c-.22.79-.36,1.66-.56,2.29a2.27,2.27,0,0,1-.32.71c-.11.14-.14.16-.23.16s-.14,0-.18-.09a1.09,1.09,0,0,1-.1-.54,11.54,11.54,0,0,0-.11-1.92,2.91,2.91,0,0,0-.33-1,1,1,0,0,0-1.84,0,2.71,2.71,0,0,0-.33,1,11.54,11.54,0,0,0-.11,1.92,1.09,1.09,0,0,1-.1.54c-.05.07-.05.09-.18.09s-.13,0-.23-.16a2.46,2.46,0,0,1-.33-.69c-.19-.63-.33-1.51-.55-2.31a7.75,7.75,0,0,0-.86-1.8,2.83,2.83,0,0,1-.47-1.46,2.53,2.53,0,0,1,.75-1.91A3,3,0,0,1,41.72,35Z" transform="translate(-25.07 -26.86)"/></svg>